<svg width="122" height="28" viewBox="0 0 122 28" fill="none" xmlns="http://www.w3.org/2000/svg">
<g clip-path="url(#clip0_2003_3731)">
<path d="M50.0471 21.3497C49.2197 21.5768 48.3801 21.7571 47.5325 21.8897C46.6889 22.0164 45.8369 22.079 44.9838 22.0768C42.4012 22.0768 40.2773 21.3767 38.6122 19.9763C36.947 18.576 36.1159 16.5973 36.1187 14.0404C36.1187 11.5345 36.9527 9.53743 38.6207 8.0492C40.2886 6.56097 42.3828 5.81686 44.9031 5.81686C46.1463 5.8084 47.385 5.96714 48.5859 6.28884V9.59696H48.467C48.0164 9.1828 47.4817 8.87096 46.8996 8.68276C46.284 8.45136 45.6328 8.32905 44.9753 8.32134C43.4928 8.32134 42.3927 8.77631 41.6663 9.69051C40.8979 10.7527 40.5156 12.0461 40.5831 13.3558C40.5369 14.8974 40.8927 16.4244 41.6153 17.7865C42.3063 19.0083 43.439 19.6191 45.0135 19.6191C45.3294 19.6287 45.6454 19.6059 45.9565 19.5511V16.0644C45.9755 15.6008 45.9283 15.1369 45.8164 14.6867C45.664 14.32 45.4088 14.0054 45.0815 13.781L50.0641 13.7087L50.0471 21.3497Z" fill="white"/>
<path d="M62.7734 17.0211C62.7734 18.6241 62.2934 19.785 61.3334 20.4951C60.5799 21.1007 59.7136 21.5502 58.7848 21.8175C57.958 22.001 57.1127 22.0881 56.2659 22.0768C54.7 22.0803 53.1472 21.7919 51.6868 21.2264L50.9094 17.8248C51.618 18.3834 52.411 18.8254 53.2585 19.1344C54.09 19.4604 54.9736 19.6332 55.8666 19.6446C56.4697 19.6583 57.0677 19.5302 57.6124 19.2705C57.8542 19.1544 58.0555 18.9683 58.1903 18.7363C58.3251 18.5043 58.3872 18.2371 58.3685 17.9693C58.3685 17.2266 57.543 16.4386 55.8921 15.6052C54.6348 14.9973 53.4299 14.2862 52.29 13.4791C51.5424 12.9093 51.1685 11.8718 51.1685 10.3581C51.1571 9.68745 51.3026 9.02343 51.5933 8.41913C51.8908 7.82312 52.328 7.30811 52.8677 6.91815C53.4461 6.50925 54.0959 6.21217 54.7834 6.04222C55.5043 5.86129 56.2448 5.76989 56.988 5.77008C58.3429 5.75943 59.6881 6.00019 60.9554 6.48018V9.24829C60.4481 8.90786 59.9019 8.62949 59.3285 8.41913C58.7822 8.229 58.2078 8.13268 57.6294 8.13424C57.1275 8.12457 56.6324 8.2525 56.1979 8.50418C55.9971 8.61703 55.8321 8.78412 55.7217 8.98638C55.6113 9.18864 55.5599 9.4179 55.5735 9.64799C55.5509 9.88125 55.5943 10.1162 55.6987 10.3259C55.8031 10.5357 55.9643 10.7119 56.1639 10.8343C56.7043 11.1672 57.2728 11.4517 57.863 11.6847C58.6276 12.0164 59.2379 12.2999 59.6938 12.5352C60.2116 12.8168 60.6949 13.1578 61.1338 13.5514C61.6234 13.9845 62.0282 14.505 62.3274 15.0864C62.632 15.6911 62.7851 16.361 62.7734 17.0381" fill="white"/>
<path d="M74.442 18.4881L73.5458 21.8005H63.2492C63.6214 21.5401 63.8987 21.1654 64.0393 20.7332C64.1809 20.2428 64.2482 19.734 64.2389 19.2237V8.81883C64.2761 8.24089 64.1922 7.66155 63.9925 7.11799C63.827 6.77187 63.5699 6.47776 63.2492 6.26758L69.5996 6.19529C69.2169 6.4457 68.9331 6.82149 68.7968 7.25831C68.6605 7.76692 68.5976 8.2924 68.6099 8.81883V19.1216C68.9679 19.2863 69.3489 19.3953 69.7398 19.4448C70.1863 19.5016 70.6362 19.5286 71.0863 19.5256C71.6971 19.5354 72.3062 19.4595 72.8959 19.3002C73.4563 19.1258 73.9802 18.8506 74.442 18.4881Z" fill="white"/>
<path d="M74.6757 21.7962C75.0512 21.5383 75.3306 21.1629 75.47 20.7289C75.6116 20.2386 75.6789 19.7298 75.6696 19.2194V8.81883C75.704 8.24101 75.6202 7.66224 75.4233 7.11799C75.2555 6.77206 74.9971 6.47815 74.6757 6.26758L81.0473 6.19529C80.6624 6.44328 80.3779 6.81998 80.2445 7.25831C80.1073 7.75955 80.0429 8.27796 80.0533 8.79757V19.2194C80.0197 19.7882 80.1006 20.3579 80.2912 20.8948C80.4549 21.246 80.7178 21.5417 81.0473 21.7452L74.6757 21.7962Z" fill="white"/>
<path d="M96.3563 9.66925V22.2894C95.9064 22.2782 95.4621 22.1875 95.0437 22.0216C94.5566 21.8401 94.0299 21.6063 93.4635 21.32C92.9536 21.0805 92.4768 20.7761 92.0448 20.4143C91.354 19.7124 90.7191 18.9575 90.146 18.1564L85.6094 12.1099L85.5415 18.352C85.5228 19.0287 85.574 19.7056 85.6944 20.3718C85.847 20.9033 86.1546 21.3771 86.5779 21.7324L82.0201 21.8047C82.4397 21.416 82.7465 20.9208 82.9078 20.3718C83.0428 19.7074 83.1012 19.0297 83.082 18.352V10.188C83.1136 9.45312 83.0421 8.71743 82.8696 8.00243C82.6019 7.36386 82.2091 6.78551 81.7142 6.30159L86.6246 6.22931L93.8883 15.8135V9.66925C93.9048 9.00269 93.8449 8.33644 93.7099 7.68352C93.5596 7.1414 93.2522 6.65604 92.8264 6.28884L97.38 6.21655C96.9725 6.61185 96.679 7.10981 96.5304 7.65801C96.3947 8.31945 96.3349 8.99423 96.352 9.66925" fill="white"/>
<path d="M109.652 18.2245L108.705 21.7962H98.2465C98.6196 21.5367 98.8972 21.1617 99.0366 20.7289C99.1782 20.2386 99.2455 19.7298 99.2362 19.2194V8.79332C99.2713 8.21649 99.1919 7.63842 99.0026 7.09248C98.8394 6.75081 98.5755 6.46738 98.2465 6.28033L106.508 6.20805H106.772C107.021 6.22259 107.271 6.18194 107.502 6.08899L107.575 9.51617C107.346 9.12669 106.979 8.8381 106.547 8.70828C106.009 8.57895 105.456 8.52035 104.903 8.53394H103.607V12.3863H105.782C106.079 12.4046 106.376 12.3642 106.657 12.2673H106.776V15.5754H106.657C106.618 15.4368 106.551 15.3078 106.459 15.1965C106.368 15.0853 106.254 14.9942 106.126 14.9291C105.67 14.7596 105.184 14.69 104.699 14.725H103.59V19.1727C103.955 19.3069 104.334 19.3969 104.72 19.4405C105.167 19.4979 105.616 19.5263 106.067 19.5256C106.738 19.541 107.408 19.4491 108.05 19.2535C108.626 19.0558 109.134 18.699 109.516 18.2245H109.652Z" fill="white"/>
<path d="M122 17.0211C122 18.6241 121.52 19.785 120.56 20.4951C119.806 21.1007 118.94 21.5502 118.011 21.8175C117.185 22.001 116.339 22.0881 115.492 22.0768C113.927 22.0803 112.374 21.7919 110.913 21.2264L110.136 17.8248C110.845 18.3834 111.638 18.8254 112.485 19.1344C113.317 19.4604 114.2 19.6332 115.093 19.6446C115.696 19.6583 116.294 19.5302 116.839 19.2705C117.081 19.1544 117.282 18.9683 117.417 18.7363C117.552 18.5043 117.614 18.2371 117.595 17.9693C117.595 17.2266 116.77 16.4386 115.119 15.6052C113.862 14.9963 112.657 14.2852 111.517 13.4791C110.769 12.9093 110.395 11.8718 110.395 10.3581C110.39 9.68575 110.543 9.02164 110.841 8.41914C111.139 7.82312 111.576 7.30811 112.115 6.91815C112.694 6.50925 113.344 6.21217 114.031 6.04222C114.752 5.86129 115.493 5.7699 116.236 5.77008C117.601 5.77036 118.953 6.0256 120.224 6.5227V9.29081C119.717 8.95038 119.171 8.67201 118.598 8.46166C118.051 8.27168 117.477 8.17536 116.898 8.17677C116.398 8.1683 115.905 8.29617 115.471 8.5467C115.27 8.65955 115.105 8.82664 114.995 9.0289C114.885 9.23116 114.833 9.46042 114.847 9.69051C114.827 9.91236 114.868 10.1354 114.963 10.3365C115.059 10.5375 115.206 10.7094 115.39 10.8343C115.931 11.1672 116.499 11.4517 117.09 11.6847C117.854 12.0164 118.464 12.2999 118.92 12.5352C119.439 12.8157 119.922 13.1569 120.36 13.5514C120.85 13.9845 121.255 14.505 121.554 15.0864C121.859 15.6911 122.012 16.361 122 17.0381" fill="white"/>
<path fill-rule="evenodd" clip-rule="evenodd" d="M14.0516 6.04647L26.2512 2.38542C26.2512 2.38542 27.9205 4.13728 28.1967 7.59848C28.4728 11.0597 27.8016 14.5166 24.9004 18.7304C21.9992 22.9443 15.8399 27.8809 10.3178 28C4.79572 28.1191 1.41875 25.0576 0.43752 21.1967C-0.543714 17.3358 0.280353 13.7598 2.06866 10.0604C3.85697 6.36112 7.41235 2.83189 9.47676 1.6328C10.4751 1.03689 11.503 0.491923 12.5564 0L12.3313 1.05452C12.3313 1.05452 9.1157 2.01124 6.21448 5.39165C3.31326 8.77206 1.11716 11.9144 1.11716 17.1614C1.11716 22.4085 5.7897 24.8152 8.26615 24.998C10.7426 25.1809 15.2622 24.5983 20.1599 19.5086C25.0576 14.4188 25.219 9.30782 25.219 8.63174C25.219 7.95566 24.9811 5.25133 24.5436 4.61352L13.733 7.43265L14.0516 6.04647Z" fill="white"/>
<path fill-rule="evenodd" clip-rule="evenodd" d="M11.9872 2.22809L11.83 3.14229C11.83 3.14229 9.93977 3.60152 7.79465 5.78709C6.33165 7.2828 5.10548 8.99344 4.15856 10.8598L22.5259 6.80334C22.5259 6.80334 22.6448 9.665 21.6126 11.655C20.2066 14.6292 18.1214 17.2306 15.5256 19.2492C11.8683 22.1534 8.61022 22.2257 7.37837 22.2257L7.73518 20.2782C7.73518 20.2782 11.3925 20.7034 15.602 16.7405C19.8116 12.7775 20.5294 8.63174 20.5294 8.63174L2.85025 12.1312C3.82069 9.57554 5.31382 7.25102 7.23394 5.30661C9.74012 2.84039 11.9829 2.2451 11.9829 2.2451" fill="white"/>
</g>
<defs>
<clipPath id="clip0_2003_3731">
<rect width="122" height="28" fill="white"/>
</clipPath>
</defs>
</svg>
